HIERARCHY
ROOT root
{
	OFFSET 0.000000 0.000000 0.000000
	CHANNELS 6 Xposition Yposition Zposition Zrotation Yrotation Xrotation
	JOINT lhip
	{
		OFFSET 0.058581 -0.082280 -0.017664
		CHANNELS 3 Zrotation Yrotation Xrotation
		JOINT lknee
		{
			OFFSET 0.043451 -0.386469 0.008037
			CHANNELS 3 Zrotation Yrotation Xrotation
			JOINT lankle
			{
				OFFSET -0.014790 -0.426874 -0.037428
				CHANNELS 3 Zrotation Yrotation Xrotation
				JOINT ltoe
				{
					OFFSET 0.041054 -0.060286 0.122042
					CHANNELS 3 Zrotation Yrotation Xrotation
					End Site
					{
						OFFSET 0.000000 0.000000 0.000000
					}
				}
			}
		}
	}
	JOINT rhip
	{
		OFFSET -0.060310 -0.090513 -0.013543
		CHANNELS 3 Zrotation Yrotation Xrotation
		JOINT rknee
		{
			OFFSET -0.043257 -0.383688 -0.004843
			CHANNELS 3 Zrotation Yrotation Xrotation
			JOINT rankle
			{
				OFFSET 0.019056 -0.420046 -0.034562
				CHANNELS 3 Zrotation Yrotation Xrotation
				JOINT rtoe
				{
					OFFSET -0.034840 -0.062106 0.130323
					CHANNELS 3 Zrotation Yrotation Xrotation
					End Site
					{
						OFFSET 0.000000 0.000000 0.000000
					}
				}
			}
		}
	}
	JOINT lowerback
	{
		OFFSET 0.004439 0.124404 -0.038385
		CHANNELS 3 Zrotation Yrotation Xrotation
		JOINT upperback
		{
			OFFSET 0.004488 0.137956 0.026820
			CHANNELS 3 Zrotation Yrotation Xrotation
			JOINT chest
			{
				OFFSET -0.002265 0.056032 0.002855
				CHANNELS 3 Zrotation Yrotation Xrotation
				JOINT lowerneck
				{
					OFFSET -0.013390 0.211636 -0.033468
					CHANNELS 3 Zrotation Yrotation Xrotation
					JOINT upperneck
					{
						OFFSET 0.010113 0.088937 0.050410
						CHANNELS 3 Zrotation Yrotation Xrotation
						End Site
						{
							OFFSET 0.000000 0.000000 0.000000
						}
					}
				}
				JOINT lclavicle
				{
					OFFSET 0.071702 0.114000 -0.018898
					CHANNELS 3 Zrotation Yrotation Xrotation
					JOINT lshoulder
					{
						OFFSET 0.122921 0.045205 -0.019046
						CHANNELS 3 Zrotation Yrotation Xrotation
						JOINT lelbow
						{
							OFFSET 0.255332 -0.015649 -0.022946
							CHANNELS 3 Zrotation Yrotation Xrotation
							JOINT lwrist
							{
								OFFSET 0.265709 0.012698 -0.007375
								CHANNELS 3 Zrotation Yrotation Xrotation
								End Site
								{
									OFFSET 0.000000 0.000000 0.000000
								}
							}
						}
					}
				}
				JOINT rclavicle
				{
					OFFSET -0.082954 0.112472 -0.023707
					CHANNELS 3 Zrotation Yrotation Xrotation
					JOINT rshoulder
					{
						OFFSET -0.113228 0.046853 -0.008472
						CHANNELS 3 Zrotation Yrotation Xrotation
						JOINT relbow
						{
							OFFSET -0.260127 -0.014369 -0.031269
							CHANNELS 3 Zrotation Yrotation Xrotation
							JOINT rwrist
							{
								OFFSET -0.269108 0.006794 -0.006027
								CHANNELS 3 Zrotation Yrotation Xrotation
								End Site
								{
									OFFSET 0.000000 0.000000 0.000000
								}
							}
						}
					}
				}
			}
		}
	}
}
MOTION
Frames: 7
Frame Time: 0.033333
0.578954 1.030772 1.196720 173.381558 -0.999579 84.029747 3.684917 -5.512788 -41.533171 -9.121076 9.276941 61.111564 8.305053 6.333222 -21.538143 0.000000 -0.000000 0.000000 -4.126770 -5.321055 1.968942 -1.826470 4.170332 32.927669 8.800396 -6.042582 29.435442 0.000000 -0.000000 0.000000 1.611074 8.334480 28.471779 0.121325 -1.194889 -7.623985 0.294997 2.095174 3.601891 -3.853960 -2.739245 0.764412 5.222833 3.361484 14.467858 -26.995580 -2.412851 3.224541 -53.742127 -2.031246 6.531076 7.475520 -33.949163 7.478515 -1.630146 -6.799382 -7.507127 24.343340 8.043300 3.835466 55.226637 4.583692 11.800078 -13.752241 25.787604 -6.643669 2.135513 4.233183 -6.111228 
0.576520 1.046776 1.225001 174.488284 -1.017098 83.953476 1.806833 -6.163652 -36.826587 -9.117721 6.917885 55.747172 8.062110 6.876824 -20.351127 0.000000 -0.000000 0.000000 -3.757941 -3.978501 -2.478363 -2.298524 2.144436 42.998236 9.976964 -8.035351 29.677296 0.000000 -0.000000 0.000000 0.958881 7.075035 28.507134 0.600552 -0.830233 -7.707577 0.375356 1.742779 3.434376 -2.859287 -2.304163 0.783370 4.446434 2.845932 14.102232 -27.106844 -2.080921 3.258981 -53.201648 -3.008445 6.905530 8.942658 -35.315540 5.514478 -1.761231 -7.059146 -7.604052 25.284829 7.120511 3.156576 55.067913 4.236298 12.259690 -14.078805 24.354199 -8.272261 0.769568 4.252513 -4.917570 
0.574926 1.062532 1.251824 175.617435 -0.840371 83.195125 -0.063697 -7.132840 -31.382122 -9.208260 3.584781 50.172568 8.031756 8.641942 -18.870455 0.000000 -0.000000 0.000000 -3.538208 -2.663697 -6.007177 -2.056246 0.184323 53.187918 9.325500 -9.036505 25.859510 0.000000 -0.000000 0.000000 0.773235 5.597222 28.834489 0.894397 -0.416148 -7.510088 0.325816 1.558957 3.341406 -2.195790 -2.102954 0.731846 4.036718 2.616713 13.593735 -27.443419 -2.076790 3.193768 -52.536684 -3.643448 7.325853 10.735569 -37.061905 1.800827 0.964679 -6.530877 -9.999444 26.082042 7.008688 2.727231 55.090472 3.517758 12.363158 -14.833929 23.238194 -11.179839 -0.742051 3.858197 -4.889310 
0.574506 1.078527 1.277156 176.486394 -0.391694 82.046878 -1.745477 -7.122267 -25.460493 -8.806418 -0.295369 44.640374 7.575983 10.042034 -17.364597 0.000000 -0.000000 0.000000 -3.115021 -1.983408 -8.720472 -2.334133 -1.532027 62.554282 6.624076 -8.929243 16.038762 0.000000 -0.000000 0.000000 1.054980 4.100141 29.379683 0.944431 -0.110527 -7.804811 0.309265 1.142793 3.688312 -1.416340 -1.315476 0.750417 3.279311 2.272361 13.549592 -27.407693 -1.863292 2.689323 -52.643398 -3.967625 7.413347 12.822957 -38.405712 -1.869969 3.750467 -5.880851 -11.881750 26.312876 7.050680 2.294834 55.500031 3.095273 11.911569 -15.055102 22.158355 -13.016451 -1.873267 3.780750 -4.991234 
0.573811 1.093767 1.300719 177.095122 -0.278378 80.948707 -3.461819 -6.999666 -19.587610 -7.870830 -3.772228 38.822841 6.990958 11.601430 -15.857234 0.000000 -0.000000 0.000000 -3.268783 -1.188115 -11.170412 -2.956715 -3.299152 69.698747 4.793381 -9.851185 6.442217 0.000000 -0.000000 0.000000 0.967034 2.857884 29.658157 0.943122 0.325147 -7.733415 0.305669 0.751357 3.716223 -0.636686 -0.663549 0.715968 2.584037 1.691167 13.929300 -27.136083 -1.445603 2.238704 -52.500715 -4.332096 7.717348 13.892845 -39.958012 -5.047888 5.423547 -5.446970 -13.358769 26.845275 6.773520 1.444450 55.056343 2.317050 11.778944 -14.503803 22.012706 -14.224477 -2.868960 3.485445 -3.916426 
0.574196 1.107131 1.321766 177.346981 0.088786 80.697366 -4.149366 -6.676392 -14.894847 -6.683896 -6.441185 32.921478 6.436904 12.216644 -13.719194 0.000000 -0.000000 0.000000 -3.396714 -1.137547 -14.016842 -2.972181 -4.614931 72.750168 4.007542 -10.400569 0.589795 0.000000 -0.000000 0.000000 1.071615 1.836956 28.706288 1.124384 0.598655 -7.316883 0.188548 0.500561 3.750964 0.072623 0.473807 0.591013 1.850776 0.903570 14.471853 -27.126045 -0.836194 2.153789 -52.587534 -5.081923 7.865240 16.075070 -40.815753 -7.459445 5.569973 -5.580351 -14.732395 27.375959 6.145104 1.037289 55.231490 2.651977 11.734825 -15.093144 21.244644 -14.471958 -2.306089 3.662744 -2.694403 
0.575245 1.119152 1.340250 177.144907 0.560646 80.861859 -4.124832 -5.386021 -10.917371 -5.521049 -8.587755 26.973721 5.636736 12.140926 -11.949191 0.000000 -0.000000 0.000000 -3.204260 -1.196658 -16.456590 -2.353164 -5.300073 71.133786 3.978186 -9.359918 -4.295369 0.000000 -0.000000 0.000000 1.167067 0.732569 27.482905 1.183731 0.921352 -6.845597 0.167839 0.450995 3.402844 0.512856 1.401677 0.866783 1.324347 0.703860 14.851923 -26.968966 0.077865 1.847581 -52.490949 -5.393457 7.882854 17.134910 -41.792070 -8.413010 5.453626 -5.759269 -15.143192 27.542812 5.743774 1.239214 55.138629 3.040046 11.622271 -14.751932 21.228667 -13.617194 -1.481933 4.097285 -2.559380 
